{"title":"Mad.Max.Fury.Road.2015.BRRip.x264-MenaceIISociety","uid":12228365,"size":1672419703,"categoryP":"video","categoryS":"movies","magnet":"?xt=urn:btih:d7a062dc9c6d27381c516b03c9cbb608fd110fe4&amp;dn=Mad.Max.Fury.Road.2015.BRRip.x264-MenaceIISociety&amp;tr=udp%3A%2F%2Ftracker.openbittorrent.com%3A80&amp;tr=udp%3A%2F%2Fopen.demonii.com%3A1337&amp;tr=udp%3A%2F%2Ftracker.coppersurfer.tk%3A6969&amp;tr=udp%3A%2F%2Fexodus.desync.com%3A6969","seeders":0,"leechers":0,"uploader":"TvTeam","files":4,"time":1439515835,"description":"------------------------------------------------------------------------\n\n &lt;a href=&quot; https://www.torrenting.com&quot; rel=&quot;nofollow&quot; target=&quot;_NEW&quot;&gt; https://www.torrenting.com&lt;/a&gt;\n\nSign up is OPEN - for time being. Come and have fun\n\n.......................................................................................................................[center][img]http://i.imgur.com/EvcBG6Q.jpg[/img]\n\nMad.Max.Fury.Road.2015.BRRip.x264-MenaceIISociety &lt;a href=&quot;\nhttp://www.imdb.com/title/tt1392190/&quot; rel=&quot;nofollow&quot; target=&quot;_NEW&quot;&gt;\nhttp://www.imdb.com/title/tt1392190/&lt;/a&gt;\n\nSource: 720p.BluRay.x264-BLOW [THANKS]\n\nNOTE: corrected the orange tan it had.\n\nGeneral\nComplete name                            : Mad.Max.Fury.Road.2015.BRRip.x264-MenaceIISociety.mp4\nFormat                                   : MPEG-4\nFormat profile                           : Base Media\nCodec ID                                 : isom\nFile size                                : 1.53 GiB\nDuration                                 : 2h 0mn\nOverall bit rate mode                    : Variable\nOverall bit rate                         : 1 816 Kbps\nEncoded date                             : UTC 2015-08-13 22:38:43\nTagged date                              : UTC 2015-08-13 22:38:43\n\nVideo\nID                                       : 1\nFormat                                   : AVC\nFormat/Info                              : Advanced Video Codec\nFormat profile                           : &lt;a class=&quot;__cf_email__&quot; href=&quot;/cdn-cgi/l/email-protection&quot; data-cfemail=&quot;337b5a545b737f071d02&quot;&gt;[email&amp;#160;protected]&lt;/a&gt;&lt;script data-cfhash='f9e31' type=&quot;text/javascript&quot;&gt;\n/* &lt;![CDATA[ */!function(){try{var t=&quot;currentScript&quot;in document?document.currentScript:function(){for(var t=document.getElementsByTagName(&quot;script&quot;),e=t.length;e--;)if(t[e].getAttribute(&quot;data-cfhash&quot;))return t[e]}();if(t&amp;&amp;t.previousSibling){var e,r,n,i,c=t.previousSibling,a=c.getAttribute(&quot;data-cfemail&quot;);if(a){for(e=&quot;&quot;,r=parseInt(a.substr(0,2),16),n=2;a.length-n;n+=2)i=parseInt(a.substr(n,2),16)^r,e+=String.fromCharCode(i);e=document.createTextNode(e),c.parentNode.replaceChild(e,c)}t.parentNode.removeChild(t);}}catch(u){}}()/* ]]&gt; */&lt;/script&gt;\nFormat settings, CABAC                   : Yes\nFormat settings, ReFrames                : 3 frames\nCodec ID                                 : avc1\nCodec ID/Info                            : Advanced Video Coding\nDuration                                 : 2h 0mn\nBit rate mode                            : Variable\nBit rate                                 : 1 459 Kbps\nMaximum bit rate                         : 40.0 Mbps\nWidth                                    : 720 pixels\nHeight                                   : 304 pixels\nDisplay aspect ratio                     : 2.35:1\nFrame rate mode                          : Constant\nFrame rate                               : 23.976 fps\nColor space                              : YUV\nChroma subsampling                       : 4:2:0\nBit depth                                : 8 bits\nScan type                                : Progressive\nBits/(Pixel*Frame)                       : 0.278\nStream size                              : 1.23 GiB (80%)\nWriting library                          : x264 core 148 r2579 73ae2d1\n\nAudio\nID                                       : 2\nFormat                                   : AAC\nFormat/Info                              : Advanced Audio Codec\nFormat profile                           : LC\nCodec ID                                 : 40\nDuration                                 : 2h 0mn\nBit rate mode                            : Variable\nBit rate                                 : 353 Kbps\nMaximum bit rate                         : 447 Kbps\nChannel(s)                               : 6 channels\nChannel positions                        : Front: L C R, Side: L R, LFE\nSampling rate                            : 48.0 KHz\nCompression mode                         : Lossy\nStream size                              : 304 MiB (19%)\nLanguage                                 : English\nEncoded date                             : UTC 2015-08-13 20:50:45\nTagged date                              : UTC 2015-08-13 22:39:25\n\n[img]http://s22.postimg.org/nyrg0ey9d/vlcsnap_2015_08_14_00h42m02s998.jpg[/img] \n[img]http://s22.postimg.org/gg8ars6wh/vlcsnap_2015_08_14_00h42m27s414.jpg[/img] \n[img]http://s22.postimg.org/pf2yik169/vlcsnap_2015_08_14_00h43m06s697.jpg[/img] \n[img]http://s22.postimg.org/jw50f2tip/vlcsnap_2015_08_14_00h45m08s150.jpg[/img] \n[img]http://s22.postimg.org/8fu03apyp/vlcsnap_2015_08_14_00h45m24s870.jpg[/img] \n[img]http://s22.postimg.org/e06hdxott/vlcsnap_2015_08_14_00h46m05s364.jpg[/img] \n[img]http://s22.postimg.org/spvww6ghd/vlcsnap_2015_08_14_00h47m36s215.jpg[/img] \n[img]http://s22.postimg.org/6cjkvmq5t/vlcsnap_2015_08_14_00h50m10s054.jpg[/img] \n[img]http://s22.postimg.org/qb41br08h/vlcsnap_2015_08_14_00h50m28s791.jpg[/img] \n \n[img]http://s17.postimg.org/r1iiyw8yn/Untitled_1.png[/img][/center]","torrent":{"xt":"urn:btih:d7a062dc9c6d27381c516b03c9cbb608fd110fe4","amp;dn":"Mad.Max.Fury.Road.2015.BRRip.x264-MenaceIISociety","amp;tr":["udp%3A%2F%2Ftracker.openbittorrent.com%3A80","udp%3A%2F%2Fopen.demonii.com%3A1337","udp%3A%2F%2Ftracker.coppersurfer.tk%3A6969","udp%3A%2F%2Fexodus.desync.com%3A6969"],"infoHash":"d7a062dc9c6d27381c516b03c9cbb608fd110fe4","infoHashBuffer":{"type":"Buffer","data":[215,160,98,220,156,109,39,56,28,81,107,3,201,203,182,8,253,17,15,228]},"announce":[],"urlList":[]}}